<?xml version="1.0" standalone="no"?>
<!DOCTYPE svg PUBLIC "-//W3C//DTD SVG 1.1//EN" "http://www.w3.org/Graphics/SVG/1.1/DTD/svg11.dtd" >
<svg xmlns="http://www.w3.org/2000/svg">
<metadata></metadata>
<defs>
<font id="agency_fbbold" horiz-adv-x="838" >
<font-face units-per-em="2048" ascent="1638" descent="-410" />
<missing-glyph horiz-adv-x="422" />
<glyph horiz-adv-x="2048" />
<glyph horiz-adv-x="2048" />
<glyph unicode="&#xd;" horiz-adv-x="2048" />
<glyph unicode=" "  horiz-adv-x="422" />
<glyph unicode="&#x09;" horiz-adv-x="422" />
<glyph unicode="&#xa0;" horiz-adv-x="422" />
<glyph unicode="!" horiz-adv-x="438" d="M94 1565h250l-33 -1200h-184zM102 0v240h232v-240h-232z" />
<glyph unicode="&#x22;" horiz-adv-x="707" d="M74 1565h229l-45 -490h-139zM403 1565h228l-43 -490h-142z" />
<glyph unicode="#" horiz-adv-x="1110" d="M47 391v191h186l64 397h-178v190h209l63 396h207l-63 -396h165l64 396h209l-66 -396h158v-190h-188l-64 -397h180v-191h-211l-63 -391h-207l63 391h-165l-62 -391h-209l64 391h-156zM440 582h166l64 397h-166z" />
<glyph unicode="$" horiz-adv-x="936" d="M90 158v358h234v-313h282v305l-465 440q-51 49 -51 127v332q0 88 52 121q39 24 123 24q15 0 44.5 -1t44.5 -1v140h219v-140q15 0 45.5 1t45.5 1q84 0 123 -24q53 -32 53 -119v-338h-234v287h-282v-275l462 -436q54 -50 54 -127v-362q0 -88 -54 -121q-39 -24 -124 -24 q-14 0 -44 1h-45v-139h-219v139h-45q-29 -1 -44 -1q-84 0 -123 24q-52 32 -52 121z" />
<glyph unicode="%" horiz-adv-x="1343" d="M43 890v554q0 121 121 121h270q121 0 121 -121v-554q0 -121 -121 -121h-270q-121 0 -121 121zM182 0v28l841 1537h134v-29l-840 -1536h-135zM209 915h178v504h-178v-504zM782 121v554q0 121 121 121h270q121 0 121 -121v-554q0 -121 -121 -121h-270q-121 0 -121 121z M948 146h178v504h-178v-504z" />
<glyph unicode="&#x26;" horiz-adv-x="999" d="M90 141v477q0 76 50 120q59 40 118 79q-57 38 -114 77q-50 43 -50 116v413q0 142 142 142h475q141 0 141 -142v-325h-229v270h-297v-379l106 -74h522v-200h-110v-715h-613q-141 0 -141 141zM319 197h297v518h-190l-107 -76v-442z" />
<glyph unicode="'" horiz-adv-x="377" d="M74 1565h229l-45 -490h-139z" />
<glyph unicode="(" horiz-adv-x="623" d="M84 682q0 477 256 883h231v-11q-237 -412 -237 -872t237 -872v-11h-231q-256 406 -256 883z" />
<glyph unicode=")" horiz-adv-x="623" d="M53 -190q238 412 238 872t-238 872v11h232q256 -406 256 -883t-256 -883h-232v11z" />
<glyph unicode="*" horiz-adv-x="938" d="M78 1085l241 105l-241 106l106 174l205 -147l-22 258h202l-18 -258l203 147l108 -174l-241 -106l241 -105l-108 -174l-203 150l18 -260h-202l22 260l-205 -150z" />
<glyph unicode="+" horiz-adv-x="971" d="M74 588v194h305v299h213v-299h305v-194h-305v-299h-213v299h-305z" />
<glyph unicode="," horiz-adv-x="377" d="M55 -162l29 402h240l-117 -402h-152z" />
<glyph unicode="-" horiz-adv-x="631" d="M76 498v209h477v-209h-477z" />
<glyph unicode="." horiz-adv-x="377" d="M76 0v242h225v-242h-225z" />
<glyph unicode="/" horiz-adv-x="909" d="M39 0v14l618 1551h213v-15l-618 -1550h-213z" />
<glyph unicode="0" horiz-adv-x="956" d="M94 143v1278q0 144 142 144h485q141 0 141 -144v-1278q0 -143 -141 -143h-488q-139 0 -139 143zM324 201h309v1163h-309v-1163z" />
<glyph unicode="1" horiz-adv-x="481" d="M57 1104v31l121 430h199v-1565h-230v1104h-90z" />
<glyph unicode="2" horiz-adv-x="903" d="M68 0v145l530 932v289h-285v-291h-229v348q0 142 143 142h459q143 0 143 -142v-303q0 -74 -51 -164l-430 -751h479v-205h-759z" />
<glyph unicode="3" horiz-adv-x="942" d="M94 143v361h230v-303h301v393l-287 197v49l287 194v330h-301v-285h-230v342q0 144 142 144h477q141 0 141 -144v-368q0 -93 -78 -144l-145 -94l147 -92q76 -47 76 -141v-439q0 -143 -141 -143h-480q-139 0 -139 143z" />
<glyph unicode="4" horiz-adv-x="932" d="M35 295v139l389 1131h238v-9l-365 -1062h252v471h223v-471h119v-199h-119v-295h-223v295h-514z" />
<glyph unicode="5" horiz-adv-x="930" d="M92 143v361h230v-303h290v602h-520l25 762h714v-205h-497l-15 -356h381q142 0 142 -142v-719q0 -143 -142 -143h-469q-139 0 -139 143z" />
<glyph unicode="6" horiz-adv-x="944" d="M94 143v1278q0 144 139 144h474q141 0 141 -144v-331h-230v274h-294v-471h387q141 0 141 -141v-609q0 -143 -141 -143h-475q-142 0 -142 143zM324 201h299v493h-299v-493z" />
<glyph unicode="7" horiz-adv-x="883" d="M59 1135v430h775v-150l-361 -1415h-240l351 1364h-299v-229h-226z" />
<glyph unicode="8" horiz-adv-x="961" d="M92 143v455q0 87 58 133q69 40 139 80l-134 78q-61 48 -61 129v403q0 144 142 144h487q139 0 139 -144v-403q0 -82 -60 -129l-134 -78q69 -40 139 -80q59 -46 59 -133v-455q0 -143 -141 -143h-494q-139 0 -139 143zM324 197h309v434l-154 88l-155 -88v-434zM328 993 l151 -90l152 90v375h-303v-375z" />
<glyph unicode="9" horiz-adv-x="944" d="M90 813v608q0 144 139 144h478q143 0 143 -144v-1278q0 -143 -141 -143h-471q-142 0 -142 143v332h230v-274h292v471h-389q-139 0 -139 141zM319 870h299v494h-299v-494z" />
<glyph unicode=":" horiz-adv-x="377" d="M76 0v242h225v-242h-225zM76 635v244h225v-244h-225z" />
<glyph unicode=";" horiz-adv-x="377" d="M47 -162l29 402h239l-116 -402h-152zM76 635v244h225v-244h-225z" />
<glyph unicode="&#x3c;" horiz-adv-x="745" d="M66 616v119l593 414v-242l-344 -231l344 -232v-241h-12z" />
<glyph unicode="=" horiz-adv-x="956" d="M80 373v190h797v-190h-797zM80 768v193h797v-193h-797z" />
<glyph unicode="&#x3e;" horiz-adv-x="745" d="M86 203v241l346 232l-346 231v242h14l582 -414v-119l-582 -413h-14z" />
<glyph unicode="?" horiz-adv-x="868" d="M74 1085v336q0 144 143 144h436q144 0 144 -144v-323q0 -76 -41 -131l-228 -308v-294h-227v266q0 79 41 135l225 305v299h-264v-285h-229zM297 0v240h235v-240h-235z" />
<glyph unicode="@" horiz-adv-x="1194" d="M92 90v1385q0 90 90 90h830q90 0 90 -90v-1043q0 -90 -90 -90h-557q-90 0 -90 88v350q0 90 90 90h204v224h-129v-140h-155v187q0 90 88 90h268q90 0 90 -90v-692h174v1013h-796v-1360h903v-102h-920q-90 0 -90 90zM526 473h133v268h-133v-268z" />
<glyph unicode="A" horiz-adv-x="924" d="M37 0v4l303 1563h246l301 -1567h-232l-47 297h-293l-47 -297h-231zM346 498h229l-114 706z" />
<glyph unicode="B" horiz-adv-x="952" d="M94 0v1565h621q139 0 139 -144v-403q0 -80 -50 -124q-7 -6 -122 -77q119 -73 126 -80q54 -47 54 -129v-465q0 -143 -143 -143h-625zM328 197h299v446l-115 76h-184v-522zM328 909h180l113 80v379h-293v-459z" />
<glyph unicode="C" horiz-adv-x="954" d="M94 143v1278q0 144 139 144h488q143 0 143 -144v-366h-233v309h-303v-1163h303v329h233v-387q0 -143 -143 -143h-488q-139 0 -139 143z" />
<glyph unicode="D" horiz-adv-x="961" d="M94 0v1565h477q139 0 221 -79.5t82 -217.5v-973q0 -138 -82 -216.5t-221 -78.5h-477zM328 201h168q143 0 143 133v899q0 131 -137 131h-174v-1163z" />
<glyph unicode="E" horiz-adv-x="809" d="M94 0v1565h643v-207h-409v-457h352v-203h-352v-491h415v-207h-649z" />
<glyph unicode="F" horiz-adv-x="772" d="M94 0v1565h639v-207h-405v-463h346v-203h-346v-692h-234z" />
<glyph unicode="G" horiz-adv-x="961" d="M94 143v1278q0 144 142 144h489q143 0 143 -144v-334h-235v277h-305v-1163h305v438h-174v199h409v-695q0 -143 -143 -143h-492q-139 0 -139 143z" />
<glyph unicode="H" horiz-adv-x="973" d="M94 0v1565h234v-645h317v645h236v-1565h-236v702h-317v-702h-234z" />
<glyph unicode="I" horiz-adv-x="430" d="M98 0v1565h234v-1565h-234z" />
<glyph unicode="J" horiz-adv-x="889" d="M68 143v385h233v-327h262v1364h234v-1422q0 -143 -144 -143h-444q-141 0 -141 143z" />
<glyph unicode="K" horiz-adv-x="883" d="M94 0v1565h234v-662l260 662h256v-11l-318 -743l357 -811h-258l-297 698v-698h-234z" />
<glyph unicode="L" horiz-adv-x="754" d="M94 0v1565h234v-1356h381v-209h-615z" />
<glyph unicode="M" horiz-adv-x="1133" d="M94 0v1565h221l246 -865q4 -14 6 -71q0 25 6 71l246 865h221v-1565h-225v772q0 61 14 170l-202 -799h-119l-203 799q14 -111 14 -170v-772h-225z" />
<glyph unicode="N" horiz-adv-x="981" d="M94 0v1565h205l375 -965q-15 72 -15 113v852h228v-1565h-205l-375 985q15 -72 15 -113v-872h-228z" />
<glyph unicode="O" horiz-adv-x="977" d="M94 143v1278q0 144 139 144h508q142 0 142 -144v-1278q0 -143 -142 -143h-508q-139 0 -139 143zM328 201h321v1163h-321v-1163z" />
<glyph unicode="P" horiz-adv-x="922" d="M94 0v1565h613q143 0 143 -144v-708q0 -146 -143 -146h-379v-567h-234zM328 768h286v596h-286v-596z" />
<glyph unicode="Q" horiz-adv-x="1008" d="M94 143v1278q0 144 142 144h505q142 0 142 -144v-1132l106 -76v-215h-16l-105 80q-28 -78 -127 -78h-508q-139 0 -139 143zM328 201h321v55l-137 104v213h14l123 -92v883h-321v-1163z" />
<glyph unicode="R" horiz-adv-x="944" d="M94 0v1565h621q141 0 141 -144v-569q0 -99 -67 -128q-36 -15 -152 -15l258 -709h-244l-258 727v141h230v496h-295v-1364h-234z" />
<glyph unicode="S" horiz-adv-x="936" d="M90 143v373h234v-319h286v307l-469 444q-51 49 -51 125v348q0 144 141 144h471q142 0 142 -142v-350h-234v295h-286v-283l469 -442q51 -48 51 -127v-373q0 -143 -142 -143h-471q-141 0 -141 143z" />
<glyph unicode="T" horiz-adv-x="799" d="M25 1358v207h749v-207h-258v-1358h-233v1358h-258z" />
<glyph unicode="U" horiz-adv-x="971" d="M94 143v1422h234v-1364h315v1364h234v-1422q0 -143 -144 -143h-497q-142 0 -142 143z" />
<glyph unicode="V" horiz-adv-x="911" d="M41 1565h235l175 -1073q2 -46 6 -134v12q0 45 6 122l176 1073h234l-300 -1567h-233z" />
<glyph unicode="W" horiz-adv-x="1286" d="M37 1565h237l121 -928q3 -48 8 -143q1 48 9 143l135 928h192l135 -928q3 -48 9 -143q1 48 8 143l121 928h237l-229 -1567h-229l-140 887q-2 48 -8 143q0 -48 -8 -143l-139 -887h-230z" />
<glyph unicode="X" horiz-adv-x="901" d="M27 0v8l292 793q-275 760 -274 764h250l156 -510l157 510h248v-9l-274 -749l292 -807h-253l-172 551l-173 -551h-249z" />
<glyph unicode="Y" horiz-adv-x="907" d="M27 1556q-1 0 -1 2.5t1 6.5h241l187 -680l186 680h240v-9l-207 -654q-38 -97 -103 -327v-575h-235v575q-16 78 -46 165q-53 149 -57 162z" />
<glyph unicode="Z" horiz-adv-x="799" d="M39 0v125l438 1229h-403v211h682v-135l-437 -1219h439v-211h-719z" />
<glyph unicode="[" horiz-adv-x="602" d="M94 -111v1541q0 135 137 135h299v-209h-206v-1395h206v-209h-299q-137 0 -137 137z" />
<glyph unicode="\" horiz-adv-x="909" d="M39 1565h213l618 -1565h-213z" />
<glyph unicode="]" horiz-adv-x="602" d="M72 -39h209v1395h-209v209h301q137 0 137 -135v-1541q0 -137 -137 -137h-301v209z" />
<glyph unicode="^" horiz-adv-x="854" d="M78 1012v12l250 541h202l246 -553h-184l-166 311l-166 -311h-182z" />
<glyph unicode="_" horiz-adv-x="809" d="M0 -236h811v-174h-811v174z" />
<glyph unicode="`" horiz-adv-x="836" d="M231 1341v9h285l174 -265v-8h-168z" />
<glyph unicode="a" horiz-adv-x="815" d="M78 119v364q0 125 129 125h309v232h-219v-144h-207v189q0 125 129 125h387q127 0 127 -125v-885h-219v35l-156 -24q-102 -15 -155 -15q-125 0 -125 123zM297 174l219 8v271h-219v-279z" />
<glyph unicode="b" d="M82 0v1565h229v-592q80 12 160 25q101 16 160 16q125 0 125 -123v-688q0 -95 -57 -149t-152 -54h-465zM311 190h142q73 0 73 76v553l-215 -4v-625z" />
<glyph unicode="c" horiz-adv-x="817" d="M82 125v760q0 125 129 125h397q127 0 127 -125v-240h-223v174h-205v-629h205v193h223v-258q0 -125 -127 -125h-397q-129 0 -129 125z" />
<glyph unicode="d" horiz-adv-x="836" d="M80 182v625q0 123 88 171q64 36 194 36q29 0 84 -2t78 -2v555h228v-1565h-228v35q-232 -41 -260 -41q-86 0 -135 50.5t-49 137.5zM307 260q0 -74 72 -74q17 0 145 11v622h-141q-76 0 -76 -76v-483z" />
<glyph unicode="e" horiz-adv-x="819" d="M82 125v760q0 125 129 125h395q129 0 129 -125v-371l-63 -63h-371v-283h215v168h219v-211q0 -125 -129 -125h-395q-129 0 -129 125zM301 600h215v242h-215v-242z" />
<glyph unicode="f" horiz-adv-x="528" d="M27 815v195h104v430q0 125 127 125h268v-199h-168v-356h146v-195h-146v-815h-227v815h-104z" />
<glyph unicode="g" horiz-adv-x="836" d="M80 209v618q0 87 49 137t135 50q43 0 260 -41v37h228v-1254q0 -125 -129 -125h-398q-129 0 -129 125v162h221v-121h207v209h-235q-96 0 -152.5 54t-56.5 149zM307 266q0 -76 76 -76h141v621q-115 12 -143 12q-74 0 -74 -73v-484z" />
<glyph unicode="h" d="M82 0v1565h229v-592q80 12 160 25q101 16 160 16q125 0 125 -123v-891h-230v819l-215 -4v-815h-229z" />
<glyph unicode="i" horiz-adv-x="401" d="M86 1155v236h229v-236h-229zM88 0v1010h225v-1010h-225z" />
<glyph unicode="j" horiz-adv-x="401" d="M-57 -178h145v1188h225v-1254q0 -125 -127 -125h-243v191zM86 1155v236h229v-236h-229z" />
<glyph unicode="k" horiz-adv-x="772" d="M82 0v1565h229v-940l181 385h239v-4l-233 -459l258 -547h-244l-201 463v-463h-229z" />
<glyph unicode="l" horiz-adv-x="401" d="M88 0v1565h225v-1565h-225z" />
<glyph unicode="m" horiz-adv-x="1278" d="M82 0v1010h229v-37q80 13 159 26q97 15 161 15q79 0 102 -45q84 13 168 27q111 18 170 18q125 0 125 -123v-891h-227v819l-215 -4v-815h-228v819l-215 -4v-815h-229z" />
<glyph unicode="n" d="M82 0v1010h229v-37q80 13 159 25q98 16 161 16q125 0 125 -123v-891h-230v819l-215 -4v-815h-229z" />
<glyph unicode="o" horiz-adv-x="831" d="M82 125v760q0 125 129 125h410q127 0 127 -125v-760q0 -125 -127 -125h-410q-129 0 -129 125zM307 190h217v629h-217v-629z" />
<glyph unicode="p" horiz-adv-x="836" d="M82 -369v1379h229v-37q80 12 160 25q101 16 160 16q125 0 125 -123v-688q0 -123 -88 -172q-64 -35 -194 -35q-30 0 -84.5 2t-78.5 2v-369h-229zM311 190h142q73 0 73 76v553l-215 -4v-625z" />
<glyph unicode="q" horiz-adv-x="836" d="M80 203v624q0 87 49 137t135 50q43 0 260 -41v37h228v-1379h-228v369h-235q-96 0 -152.5 54t-56.5 149zM307 266q0 -76 74 -76h143v621q-125 12 -145 12q-72 0 -72 -73v-484z" />
<glyph unicode="r" horiz-adv-x="766" d="M82 0v1010h229v-37q71 13 141 26q85 15 142 15q125 0 125 -123v-303h-227v231l-181 -4v-815h-229z" />
<glyph unicode="s" horiz-adv-x="795" d="M78 125v217h219v-170h201v160l-351 207q-69 41 -69 110v236q0 125 129 125h381q127 0 127 -125v-203h-217v156h-201v-146l350 -205q70 -40 70 -112v-250q0 -125 -127 -125h-385q-127 0 -127 125z" />
<glyph unicode="t" horiz-adv-x="563" d="M29 815v195h108v274h228v-274h147v-195h-147v-620h153v-195h-254q-127 0 -127 125v690h-108z" />
<glyph unicode="u" d="M82 119v891h227v-820l217 5v815h228v-1010h-228v35q-79 -13 -159 -26q-97 -15 -160 -15q-125 0 -125 125z" />
<glyph unicode="v" horiz-adv-x="797" d="M31 1010h235l133 -664l133 664h234l-258 -1012h-219z" />
<glyph unicode="w" horiz-adv-x="1112" d="M31 1010h219l110 -645l109 645h174l109 -645l110 645h219l-217 -1012h-200l-109 559l-109 -559h-198z" />
<glyph unicode="x" horiz-adv-x="778" d="M20 0v4l244 516l-221 490h236l110 -293l115 293h231v-4l-221 -484l244 -522h-248l-121 317l-125 -317h-244z" />
<glyph unicode="y" horiz-adv-x="797" d="M31 1010h235l133 -664l133 664h234l-253 -997l-97 -382h-234l105 377z" />
<glyph unicode="z" horiz-adv-x="711" d="M45 0v135l336 688h-309v187h581v-136l-338 -688h338v-186h-608z" />
<glyph unicode="{" horiz-adv-x="760" d="M53 672v37l197 192v416q0 248 239 248h199v-207q-12 0 -43 2t-48 2q-116 0 -116 -84v-354q0 -57 -11 -83t-52 -61l-109 -90l109 -92q41 -35 53 -63q10 -24 10 -78v-414q0 -87 119 -87q16 0 46 1.5t42 1.5v-207h-199q-239 0 -239 248v479z" />
<glyph unicode="|" horiz-adv-x="430" d="M102 -360v1925h226v-1925h-226z" />
<glyph unicode="}" horiz-adv-x="760" d="M72 -41q11 0 41 -1.5t46 -1.5q122 0 122 87v414q0 56 10 81.5t51 59.5l109 92l-109 90q-41 34 -52 63q-9 23 -9 81v354q0 83 -119 83q-17 0 -48 -1.5t-42 -1.5v207h198q240 0 240 -248v-416l197 -192v-37l-197 -193v-479q0 -248 -240 -248h-198v207z" />
<glyph unicode="~" horiz-adv-x="1036" d="M129 428v250q0 121 117 121q52 0 129 -31l332 -133v158h200v-248q0 -123 -116 -123q-55 0 -132 31l-331 133v-158h-199z" />
<glyph unicode="&#xa1;" horiz-adv-x="438" d="M94 0l33 1200h184l33 -1200h-250zM102 1325v240h232v-240h-232z" />
<glyph unicode="&#xa2;" horiz-adv-x="817" d="M82 412v747q0 96 74 118q25 7 155 7v281h197v-281q129 0 154 -7q73 -22 73 -118v-239h-223v176h-205v-621h205v195h223v-258q0 -96 -73 -118q-25 -7 -154 -7v-287h-197v287q-130 0 -155 7q-74 22 -74 118z" />
<glyph unicode="&#xa3;" horiz-adv-x="942" d="M49 0v201h105v454h-105v197h105v569q0 144 143 144h428q141 0 141 -142v-340h-229v283h-254v-514h279v-197h-279v-454h494v-201h-828z" />
<glyph unicode="&#xa4;" horiz-adv-x="1221" d="M142 349l177 178v395l-177 177l118 118l194 -194h330l193 194l118 -118l-177 -178v-395l177 -177l-118 -118l-194 194h-330l-193 -194zM483 573l271 1v302h-271v-303z" />
<glyph unicode="&#xa5;" horiz-adv-x="907" d="M27 1565h241l187 -680l186 680h240v-9l-181 -571h158v-186h-217l-45 -148h262v-188h-287v-463h-235v463h-285v188h260l-45 148h-215v186h156q-182 576 -180 580z" />
<glyph unicode="&#xa6;" horiz-adv-x="397" d="M129 -409v826h139v-826h-139zM129 811v827h139v-827h-139z" />
<glyph unicode="&#xa7;" horiz-adv-x="913" d="M88 125v237h227v-190h285v195l-434 180q-78 32 -78 112v177q0 77 50 113q3 2 124 59q-120 57 -122 59q-52 37 -52 113v260q0 125 127 125h483q127 0 127 -125v-238h-225v191h-285v-195l433 -180q77 -33 77 -113v-176q0 -78 -50 -114q-1 -1 -124 -58q122 -58 123 -59 q51 -36 51 -113v-260q0 -125 -127 -125h-483q-127 0 -127 125zM311 694l146 -67l147 67v176l-147 68l-146 -68v-176z" />
<glyph unicode="&#xa8;" horiz-adv-x="836" d="M156 1077v215h219v-215h-219zM461 1077v215h219v-215h-219z" />
<glyph unicode="&#xa9;" horiz-adv-x="1194" d="M92 90v1385q0 90 90 90h830q90 0 90 -90v-1385q0 -90 -90 -90h-830q-90 0 -90 90zM199 102h796v1360h-796v-1360zM365 438v692q0 97 94 97h272q94 0 94 -97v-219h-161v168h-138v-590h138v179h161v-230q0 -94 -94 -94h-272q-94 0 -94 94z" />
<glyph unicode="&#xaa;" horiz-adv-x="707" d="M86 512v154h535v-154h-535zM86 858v291q0 98 104 98h246v178h-170v-108h-172v149q0 99 105 99h315q107 0 107 -99v-700h-187v27q-233 -31 -248 -31q-100 0 -100 96zM266 905l170 6v213h-170v-219z" />
<glyph unicode="&#xab;" horiz-adv-x="1036" d="M66 537v36l253 381h250v-8l-258 -391l258 -399h-250zM453 537v36l254 381h249v-8l-260 -391l260 -399h-249z" />
<glyph unicode="&#xac;" horiz-adv-x="942" d="M119 624v124h704v-416h-124v292h-580z" />
<glyph unicode="&#xad;" horiz-adv-x="631" d="M76 498v209h477v-209h-477z" />
<glyph unicode="&#xae;" horiz-adv-x="1194" d="M92 90v1385q0 90 90 90h830q90 0 90 -90v-1385q0 -90 -90 -90h-830q-90 0 -90 90zM199 102h796v1360h-796v-1360zM362 344v881h377q92 0 92 -95v-319q0 -91 -112 -94l139 -373h-164l-141 381l12 115h107v250h-148v-746h-162z" />
<glyph unicode="&#xaf;" horiz-adv-x="836" d="M156 1096v157h524v-157h-524z" />
<glyph unicode="&#xb0;" horiz-adv-x="657" d="M76 1022v422q0 121 121 121h264q121 0 121 -121v-422q0 -123 -121 -123h-264q-121 0 -121 123zM229 1042h197v379h-197v-379z" />
<glyph unicode="&#xb1;" d="M68 190v123h704v-123h-704zM70 650v114h290v264h119v-264h289v-114h-289v-254h-119v254h-290z" />
<glyph unicode="&#xb2;" horiz-adv-x="627" d="M60 769v88l341 423v140h-170v-161h-160v175q0 53 35 92t88 39h238q56 0 92.5 -37t36.5 -94v-98q0 -93 -37 -137l-237 -283h275v-147h-502z" />
<glyph unicode="&#xb3;" horiz-adv-x="636" d="M65 890v150h159v-132h188v120l-174 113v67l159 104v114h-168v-122h-159v132q0 129 127 129h246q114 0 114 -111v-127q0 -54 -46 -92q-46 -31 -92 -61q96 -61 107 -70q45 -42 45 -111v-105q0 -48 -29.5 -83.5t-76.5 -35.5h-281q-119 0 -119 121z" />
<glyph unicode="&#xb4;" horiz-adv-x="836" d="M145 1077v8l172 265h287v-9l-291 -264h-168z" />
<glyph unicode="&#xb6;" horiz-adv-x="1040" d="M78 702v721q0 142 141 142h727v-1565h-213v561h-119v-561h-213v561h-182q-141 0 -141 141zM481 768h252v590h-252v-590z" />
<glyph unicode="&#xb7;" horiz-adv-x="399" d="M76 483v258h250v-258h-250z" />
<glyph unicode="&#xb8;" horiz-adv-x="836" d="M195 -182h155v-84h131v84q-50 22 -101 44q-44 28 -44 89v69h151v-61q52 -25 104 -51q46 -31 46 -92v-107q0 -96 -96 -96h-250q-96 0 -96 96v109z" />
<glyph unicode="&#xb9;" horiz-adv-x="397" d="M72 1193l90 372h135v-796h-173v424h-52z" />
<glyph unicode="&#xba;" horiz-adv-x="715" d="M86 512v154h543v-154h-543zM86 866v600q0 99 107 99h331q105 0 105 -99v-600q0 -100 -105 -100h-331q-107 0 -107 100zM270 915h172v500h-172v-500z" />
<glyph unicode="&#xbb;" horiz-adv-x="1036" d="M80 156v8l260 391l-260 399h250l254 -381v-36l-254 -381h-250zM467 156v8l260 391l-260 399h252l252 -381v-36l-252 -381h-252z" />
<glyph unicode="&#xbc;" horiz-adv-x="1170" d="M29 0v28l841 1537h134v-29l-840 -1536h-135zM75 1193l90 372h135v-796h-173v424h-52zM583 169v119l193 508h163l-183 -484h150v192h158v-192h71v-143h-71v-169h-158v169h-323z" />
<glyph unicode="&#xbd;" horiz-adv-x="1180" d="M41 0v28l841 1537h134v-29l-840 -1536h-135zM78 1193l90 372h135v-796h-173v424h-52zM657 0v88l341 423v140h-170v-161h-160v175q0 53 35 92t88 39h238q56 0 92.5 -37t36.5 -94v-98q0 -93 -37 -137l-237 -283h275v-147h-502z" />
<glyph unicode="&#xbe;" horiz-adv-x="1300" d="M22 890v150h159v-132h188v120l-174 113v67l159 104v114h-168v-122h-159v132q0 129 127 129h246q114 0 114 -111v-127q0 -54 -46 -92q-46 -31 -92 -61q96 -61 107 -70q45 -42 45 -111v-105q0 -48 -29.5 -83.5t-76.5 -35.5h-281q-119 0 -119 121zM201 -13v28l841 1537h134 v-29l-840 -1536h-135zM732 169v119l193 508h163l-183 -484h150v192h158v-192h71v-143h-71v-169h-158v169h-323z" />
<glyph unicode="&#xbf;" horiz-adv-x="868" d="M74 143v324q0 76 41 131l227 307v295h227v-266q0 -83 -39 -135l-227 -305v-299h266v284h228v-336q0 -143 -144 -143h-436q-143 0 -143 143zM338 1325v240h235v-240h-235z" />
<glyph unicode="&#xc0;" horiz-adv-x="924" d="M37 0v4l303 1563h246l301 -1567h-232l-47 297h-293l-47 -297h-231zM142 1899v9h285l174 -265v-8h-168zM346 498h229l-114 706z" />
<glyph unicode="&#xc1;" horiz-adv-x="924" d="M37 0v4l303 1563h246l301 -1567h-232l-47 297h-293l-47 -297h-231zM316 1633v8l172 265h287v-9l-291 -264h-168zM346 498h229l-114 706z" />
<glyph unicode="&#xc2;" horiz-adv-x="924" d="M37 0v4l303 1563h246l301 -1567h-232l-47 297h-293l-47 -297h-231zM177 1625v8l207 261h158l207 -261v-8h-150l-137 115l-137 -115h-148zM346 498h229l-114 706z" />
<glyph unicode="&#xc3;" horiz-adv-x="924" d="M37 0v4l303 1563h246l301 -1567h-232l-47 297h-293l-47 -297h-231zM184 1638v158q0 94 94 94q54 0 141 -34q67 -28 136 -56v88h157v-158q0 -94 -94 -94q-52 0 -143 35q-67 28 -134 55v-88h-157zM346 498h229l-114 706z" />
<glyph unicode="&#xc4;" horiz-adv-x="924" d="M37 0v4l303 1563h246l301 -1567h-232l-47 297h-293l-47 -297h-231zM200 1633v215h219v-215h-219zM346 498h229l-114 706zM505 1633v215h219v-215h-219z" />
<glyph unicode="&#xc5;" horiz-adv-x="924" d="M37 0v4l303 1563h246l301 -1567h-232l-47 297h-293l-47 -297h-231zM230 1672v200q0 105 105 105h246q106 0 106 -105v-200q0 -105 -106 -105h-246q-105 0 -105 105zM346 498h229l-114 706zM385 1696h147v152h-147v-152z" />
<glyph unicode="&#xc6;" horiz-adv-x="1276" d="M27 0v4l446 1561h731v-207h-399v-455h342v-205h-342v-491h405v-207h-632v297h-244l-78 -297h-229zM385 498h193v759z" />
<glyph unicode="&#xc7;" horiz-adv-x="954" d="M94 143v1278q0 144 139 144h488q143 0 143 -144v-366h-233v309h-303v-1163h303v329h233v-387q0 -143 -143 -143h-488q-139 0 -139 143zM267 -200h155v-84h131v84q-50 22 -101 44q-44 28 -44 89v69h151v-61q52 -25 104 -51q46 -31 46 -92v-107q0 -96 -96 -96h-250 q-96 0 -96 96v109z" />
<glyph unicode="&#xc8;" horiz-adv-x="809" d="M94 0v1565h643v-207h-409v-457h352v-203h-352v-491h415v-207h-649zM126 1897v9h285l174 -265v-8h-168z" />
<glyph unicode="&#xc9;" horiz-adv-x="809" d="M94 0v1565h643v-207h-409v-457h352v-203h-352v-491h415v-207h-649zM235 1633v8l172 265h287v-9l-291 -264h-168z" />
<glyph unicode="&#xca;" horiz-adv-x="809" d="M94 0v1565h643v-207h-409v-457h352v-203h-352v-491h415v-207h-649zM134 1633v8l207 261h158l207 -261v-8h-150l-137 115l-137 -115h-148z" />
<glyph unicode="&#xcb;" horiz-adv-x="809" d="M94 0v1565h643v-207h-409v-457h352v-203h-352v-491h415v-207h-649zM157 1633v215h219v-215h-219zM462 1633v215h219v-215h-219z" />
<glyph unicode="&#xcc;" horiz-adv-x="430" d="M-86 1897v9h285l174 -265v-8h-168zM98 0v1565h234v-1565h-234z" />
<glyph unicode="&#xcd;" horiz-adv-x="430" d="M55 1633v8l172 265h287v-9l-291 -264h-168zM98 0v1565h234v-1565h-234z" />
<glyph unicode="&#xce;" horiz-adv-x="430" d="M-70 1631v8l207 261h158l207 -261v-8h-150l-137 115l-137 -115h-148zM98 0v1565h234v-1565h-234z" />
<glyph unicode="&#xcf;" horiz-adv-x="430" d="M-47 1633v215h219v-215h-219zM98 0v1565h234v-1565h-234zM258 1633v215h219v-215h-219z" />
<glyph unicode="&#xd0;" horiz-adv-x="961" d="M26 697v177h388v-177h-388zM94 0v1565h477q139 0 221 -79.5t82 -217.5v-973q0 -138 -82 -216.5t-221 -78.5h-477zM328 201h168q143 0 143 133v899q0 131 -137 131h-174v-1163z" />
<glyph unicode="&#xd1;" horiz-adv-x="981" d="M94 0v1565h205l375 -965q-15 72 -15 113v852h228v-1565h-205l-375 985q15 -72 15 -113v-872h-228zM224 1633v158q0 94 94 94q54 0 141 -34q67 -28 136 -56v88h157v-158q0 -94 -94 -94q-52 0 -143 35q-67 28 -134 55v-88h-157z" />
<glyph unicode="&#xd2;" horiz-adv-x="977" d="M94 143v1278q0 144 139 144h508q142 0 142 -144v-1278q0 -143 -142 -143h-508q-139 0 -139 143zM179 1897v9h285l174 -265v-8h-168zM328 201h321v1163h-321v-1163z" />
<glyph unicode="&#xd3;" horiz-adv-x="977" d="M94 143v1278q0 144 139 144h508q142 0 142 -144v-1278q0 -143 -142 -143h-508q-139 0 -139 143zM328 201h321v1163h-321v-1163zM338 1633v8l172 265h287v-9l-291 -264h-168z" />
<glyph unicode="&#xd4;" horiz-adv-x="977" d="M94 143v1278q0 144 139 144h508q142 0 142 -144v-1278q0 -143 -142 -143h-508q-139 0 -139 143zM202 1633v8l207 261h158l207 -261v-8h-150l-137 115l-137 -115h-148zM328 201h321v1163h-321v-1163z" />
<glyph unicode="&#xd5;" horiz-adv-x="977" d="M94 143v1278q0 144 139 144h508q142 0 142 -144v-1278q0 -143 -142 -143h-508q-139 0 -139 143zM223 1638v158q0 94 94 94q54 0 141 -34q67 -28 136 -56v88h157v-158q0 -94 -94 -94q-52 0 -143 35q-67 28 -134 55v-88h-157zM328 201h321v1163h-321v-1163z" />
<glyph unicode="&#xd6;" horiz-adv-x="977" d="M94 143v1278q0 144 139 144h508q142 0 142 -144v-1278q0 -143 -142 -143h-508q-139 0 -139 143zM226 1633v215h219v-215h-219zM328 201h321v1163h-321v-1163zM531 1633v215h219v-215h-219z" />
<glyph unicode="&#xd7;" horiz-adv-x="942" d="M134 474l205 205l-204 204l132 131l204 -204l204 205l132 -132l-205 -204l204 -204l-132 -132l-204 205l-204 -205z" />
<glyph unicode="&#xd8;" horiz-adv-x="977" d="M94 143v1278q0 144 139 144h359l43 153h239v-12l-47 -164q56 -34 56 -121v-1278q0 -143 -142 -143h-348l-43 -154h-237v13l45 157q-64 35 -64 127zM328 201h321v1163h-321v-1163z" />
<glyph unicode="&#xd9;" horiz-adv-x="971" d="M94 143v1422h234v-1364h315v1364h234v-1422q0 -143 -144 -143h-497q-142 0 -142 143zM178 1897v9h285l174 -265v-8h-168z" />
<glyph unicode="&#xda;" horiz-adv-x="971" d="M94 143v1422h234v-1364h315v1364h234v-1422q0 -143 -144 -143h-497q-142 0 -142 143zM329 1633v8l172 265h287v-9l-291 -264h-168z" />
<glyph unicode="&#xdb;" horiz-adv-x="971" d="M94 143v1422h234v-1364h315v1364h234v-1422q0 -143 -144 -143h-497q-142 0 -142 143zM199 1634v8l207 261h158l207 -261v-8h-150l-137 115l-137 -115h-148z" />
<glyph unicode="&#xdc;" horiz-adv-x="971" d="M94 143v1422h234v-1364h315v1364h234v-1422q0 -143 -144 -143h-497q-142 0 -142 143zM223 1633v215h219v-215h-219zM528 1633v215h219v-215h-219z" />
<glyph unicode="&#xdd;" horiz-adv-x="907" d="M27 1556q-1 1 0 9h241l187 -680l186 680h240v-9l-207 -654q-38 -97 -103 -327v-575h-235v575q-16 78 -46 165q-53 149 -57 162zM324 1633v8l172 265h287v-9l-291 -264h-168z" />
<glyph unicode="&#xde;" horiz-adv-x="821" d="M109 0v1565h200v-348h295q148 0 148 -132v-698q0 -133 -138 -133h-305v-254h-200zM309 424h242v623h-242v-623z" />
<glyph unicode="&#xdf;" horiz-adv-x="844" d="M82 0v1565h430q244 0 244 -246v-279q0 -78 -40 -127q-3 -3 -104 -96q107 -91 111 -96q37 -45 37 -131v-453q0 -137 -137 -137h-220v180h132v461l-138 137v78l131 131v303q0 84 -84 84h-133v-1374h-229z" />
<glyph unicode="&#xe0;" horiz-adv-x="815" d="M78 119v364q0 125 129 125h309v232h-219v-144h-207v189q0 125 129 125h387q127 0 127 -125v-885h-219v35l-156 -24q-102 -15 -155 -15q-125 0 -125 123zM117 1341v9h285l174 -265v-8h-168zM297 174l219 8v271h-219v-279z" />
<glyph unicode="&#xe1;" horiz-adv-x="815" d="M78 119v364q0 125 129 125h309v232h-219v-144h-207v189q0 125 129 125h387q127 0 127 -125v-885h-219v35l-156 -24q-102 -15 -155 -15q-125 0 -125 123zM252 1077v8l172 265h287v-9l-291 -264h-168zM297 174l219 8v271h-219v-279z" />
<glyph unicode="&#xe2;" horiz-adv-x="815" d="M78 119v364q0 125 129 125h309v232h-219v-144h-207v189q0 125 129 125h387q127 0 127 -125v-885h-219v35l-156 -24q-102 -15 -155 -15q-125 0 -125 123zM128 1077v8l207 261h158l207 -261v-8h-150l-137 115l-137 -115h-148zM297 174l219 8v271h-219v-279z" />
<glyph unicode="&#xe3;" horiz-adv-x="815" d="M78 119v364q0 125 129 125h309v232h-219v-144h-207v189q0 125 129 125h387q127 0 127 -125v-885h-219v35l-156 -24q-102 -15 -155 -15q-125 0 -125 123zM151 1077v158q0 94 94 94q54 0 141 -34q67 -28 136 -56v88h157v-158q0 -94 -94 -94q-52 0 -143 35q-67 28 -134 55 v-88h-157zM297 174l219 8v271h-219v-279z" />
<glyph unicode="&#xe4;" horiz-adv-x="815" d="M78 119v364q0 125 129 125h309v232h-219v-144h-207v189q0 125 129 125h387q127 0 127 -125v-885h-219v35l-156 -24q-102 -15 -155 -15q-125 0 -125 123zM152 1077v215h219v-215h-219zM297 174l219 8v271h-219v-279zM457 1077v215h219v-215h-219z" />
<glyph unicode="&#xe5;" horiz-adv-x="815" d="M78 119v364q0 125 129 125h309v232h-219v-144h-207v189q0 125 129 125h387q127 0 127 -125v-885h-219v35l-156 -24q-102 -15 -155 -15q-125 0 -125 123zM187 1182v200q0 105 105 105h246q106 0 106 -105v-200q0 -105 -106 -105h-246q-105 0 -105 105zM297 174l219 8v271 h-219v-279zM342 1206h147v152h-147v-152z" />
<glyph unicode="&#xe6;" horiz-adv-x="1219" d="M78 119v362q0 125 129 125h299v234h-209v-146h-207v191q0 125 129 125h791q127 0 127 -125v-371l-64 -61h-360v-285h205v170h219v-213q0 -125 -127 -125h-375q-75 0 -105 39l-164 -26q-109 -17 -163 -17q-125 0 -125 123zM297 172l209 8v273h-209v-281zM713 604h205v238 h-205v-238z" />
<glyph unicode="&#xe7;" horiz-adv-x="817" d="M82 125v760q0 125 129 125h397q127 0 127 -125v-240h-223v174h-205v-629h205v193h223v-258q0 -125 -127 -125h-397q-129 0 -129 125zM186 -200h155v-84h131v84q-50 22 -101 44q-44 28 -44 89v69h151v-61q52 -25 104 -51q46 -31 46 -92v-107q0 -96 -96 -96h-250 q-96 0 -96 96v109z" />
<glyph unicode="&#xe8;" horiz-adv-x="819" d="M82 125v760q0 125 129 125h395q129 0 129 -125v-371l-63 -63h-371v-283h215v168h219v-211q0 -125 -129 -125h-395q-129 0 -129 125zM112 1341v9h285l174 -265v-8h-168zM301 600h215v242h-215v-242z" />
<glyph unicode="&#xe9;" horiz-adv-x="819" d="M82 125v760q0 125 129 125h395q129 0 129 -125v-371l-63 -63h-371v-283h215v168h219v-211q0 -125 -129 -125h-395q-129 0 -129 125zM244 1077v8l172 265h287v-9l-291 -264h-168zM301 600h215v242h-215v-242z" />
<glyph unicode="&#xea;" horiz-adv-x="819" d="M82 125v760q0 125 129 125h395q129 0 129 -125v-371l-63 -63h-371v-283h215v168h219v-211q0 -125 -129 -125h-395q-129 0 -129 125zM124 1077v8l207 261h158l207 -261v-8h-150l-137 115l-137 -115h-148zM301 600h215v242h-215v-242z" />
<glyph unicode="&#xeb;" horiz-adv-x="819" d="M82 125v760q0 125 129 125h395q129 0 129 -125v-371l-63 -63h-371v-283h215v168h219v-211q0 -125 -129 -125h-395q-129 0 -129 125zM147 1077v215h219v-215h-219zM301 600h215v242h-215v-242zM452 1077v215h219v-215h-219z" />
<glyph unicode="&#xec;" horiz-adv-x="401" d="M-100 1341v9h285l174 -265v-8h-168zM88 0v1010h225v-1010h-225z" />
<glyph unicode="&#xed;" horiz-adv-x="401" d="M39 1077v8l172 265h287v-9l-291 -264h-168zM88 0v1010h225v-1010h-225z" />
<glyph unicode="&#xee;" horiz-adv-x="401" d="M-84 1077v8l207 261h158l207 -261v-8h-150l-137 115l-137 -115h-148zM88 0v1010h225v-1010h-225z" />
<glyph unicode="&#xef;" horiz-adv-x="401" d="M-60 1077v215h219v-215h-219zM88 0v1010h225v-1010h-225zM245 1077v215h219v-215h-219z" />
<glyph unicode="&#xf0;" horiz-adv-x="803" d="M86 127v719q0 127 129 127h229v131l-143 -66h-53v140l196 88v141h-163v-111h-172v142q0 50 36 88.5t86 38.5h291q82 0 108 -72q15 -40 15 -135l117 53v-162l-117 -53v-1069q0 -55 -34.5 -91t-88.5 -36h-313q-123 0 -123 127zM281 170h170v637h-170v-637z" />
<glyph unicode="&#xf1;" d="M82 0v1010h229v-37q80 13 159 25q98 16 161 16q125 0 125 -123v-891h-230v819l-215 -4v-815h-229zM155 1077v158q0 94 94 94q54 0 141 -34q67 -28 136 -56v88h157v-158q0 -94 -94 -94q-52 0 -143 35q-67 28 -134 55v-88h-157z" />
<glyph unicode="&#xf2;" horiz-adv-x="831" d="M82 125v760q0 125 129 125h410q127 0 127 -125v-760q0 -125 -127 -125h-410q-129 0 -129 125zM112 1341v9h285l174 -265v-8h-168zM307 190h217v629h-217v-629z" />
<glyph unicode="&#xf3;" horiz-adv-x="831" d="M82 125v760q0 125 129 125h410q127 0 127 -125v-760q0 -125 -127 -125h-410q-129 0 -129 125zM254 1077v8l172 265h287v-9l-291 -264h-168zM307 190h217v629h-217v-629z" />
<glyph unicode="&#xf4;" horiz-adv-x="831" d="M82 125v760q0 125 129 125h410q127 0 127 -125v-760q0 -125 -127 -125h-410q-129 0 -129 125zM121 1077v8l207 261h158l207 -261v-8h-150l-137 115l-137 -115h-148zM307 190h217v629h-217v-629z" />
<glyph unicode="&#xf5;" horiz-adv-x="831" d="M82 125v760q0 125 129 125h410q127 0 127 -125v-760q0 -125 -127 -125h-410q-129 0 -129 125zM151 1077v158q0 94 94 94q54 0 141 -34q67 -28 136 -56v88h157v-158q0 -94 -94 -94q-52 0 -143 35q-67 28 -134 55v-88h-157zM307 190h217v629h-217v-629z" />
<glyph unicode="&#xf6;" horiz-adv-x="831" d="M82 125v760q0 125 129 125h410q127 0 127 -125v-760q0 -125 -127 -125h-410q-129 0 -129 125zM153 1077v215h219v-215h-219zM307 190h217v629h-217v-629zM458 1077v215h219v-215h-219z" />
<glyph unicode="&#xf7;" d="M70 625v126h698v-126h-698zM314 430q0 44 30.5 75.5t73.5 31.5q44 0 74.5 -31.5t30.5 -75.5t-30.5 -75t-74.5 -31q-43 0 -73.5 31t-30.5 75zM314 944q0 44 30.5 75t73.5 31q44 0 74.5 -31t30.5 -75t-30.5 -75.5t-74.5 -31.5q-43 0 -73.5 31.5t-30.5 75.5z" />
<glyph unicode="&#xf8;" horiz-adv-x="831" d="M82 125v760q0 125 129 125h262l53 153h219q1 -11 0 -12l-53 -156q56 -27 56 -110v-760q0 -125 -127 -125h-267l-53 -154h-217v13l53 155q-55 28 -55 111zM307 190h217v629h-217v-629z" />
<glyph unicode="&#xf9;" d="M82 119v891h227v-820l217 5v815h228v-1010h-228v35q-79 -13 -159 -26q-97 -15 -160 -15q-125 0 -125 125zM115 1341v9h285l174 -265v-8h-168z" />
<glyph unicode="&#xfa;" d="M82 119v891h227v-820l217 5v815h228v-1010h-228v35q-79 -13 -159 -26q-97 -15 -160 -15q-125 0 -125 125zM253 1077v8l172 265h287v-9l-291 -264h-168z" />
<glyph unicode="&#xfb;" d="M82 119v891h227v-820l217 5v815h228v-1010h-228v35q-79 -13 -159 -26q-97 -15 -160 -15q-125 0 -125 125zM134 1077v8l207 261h158l207 -261v-8h-150l-137 115l-137 -115h-148z" />
<glyph unicode="&#xfc;" d="M82 119v891h227v-820l217 5v815h228v-1010h-228v35q-79 -13 -159 -26q-97 -15 -160 -15q-125 0 -125 125zM157 1077v215h219v-215h-219zM462 1077v215h219v-215h-219z" />
<glyph unicode="&#xfd;" horiz-adv-x="797" d="M31 1010h235l133 -664l133 664h234l-253 -997l-97 -382h-234l105 377zM268 1077v8l172 265h287v-9l-291 -264h-168z" />
<glyph unicode="&#xfe;" horiz-adv-x="735" d="M90 -410v1975h195v-613l196 33q168 0 168 -166v-594q0 -100 -59.5 -162.5t-159.5 -62.5h-145v-410h-195zM285 158h57q113 0 113 125v518h-170v-643z" />
<glyph unicode="&#xff;" horiz-adv-x="797" d="M31 1010h235l133 -664l133 664h234l-253 -997l-97 -382h-234l105 377zM137 1077v215h219v-215h-219zM442 1077v215h219v-215h-219z" />
<glyph unicode="&#x152;" horiz-adv-x="1323" d="M94 143v1278q0 144 142 144h1015v-207h-399v-455h342v-205h-342v-491h405v-207h-1021q-142 0 -142 143zM328 201h293v1163h-293v-1163z" />
<glyph unicode="&#x153;" horiz-adv-x="1235" d="M82 125v760q0 125 129 125h815q127 0 127 -125v-371l-63 -63h-363v-283h207v168h219v-211q0 -125 -127 -125h-815q-129 0 -129 125zM305 186h213v637h-213v-637zM727 600h207v242h-207v-242z" />
<glyph unicode="&#x178;" horiz-adv-x="907" d="M27 1556q-1 1 0 9h241l187 -680l186 680h240v-9l-207 -654q-38 -97 -103 -327v-575h-235v575q-16 78 -46 165q-53 149 -57 162zM192 1633v215h219v-215h-219zM497 1633v215h219v-215h-219z" />
<glyph unicode="&#x2c6;" horiz-adv-x="836" d="M133 1077v8l207 261h158l207 -261v-8h-150l-137 115l-137 -115h-148z" />
<glyph unicode="&#x2dc;" horiz-adv-x="836" d="M154 1077v158q0 94 94 94q54 0 141 -34q67 -28 136 -56v88h157v-158q0 -94 -94 -94q-52 0 -143 35q-67 28 -134 55v-88h-157z" />
<glyph unicode="&#x2000;" horiz-adv-x="988" />
<glyph unicode="&#x2001;" horiz-adv-x="1977" />
<glyph unicode="&#x2002;" horiz-adv-x="988" />
<glyph unicode="&#x2003;" horiz-adv-x="1977" />
<glyph unicode="&#x2004;" horiz-adv-x="659" />
<glyph unicode="&#x2005;" horiz-adv-x="494" />
<glyph unicode="&#x2006;" horiz-adv-x="329" />
<glyph unicode="&#x2007;" horiz-adv-x="329" />
<glyph unicode="&#x2008;" horiz-adv-x="247" />
<glyph unicode="&#x2009;" horiz-adv-x="395" />
<glyph unicode="&#x200a;" horiz-adv-x="109" />
<glyph unicode="&#x2010;" horiz-adv-x="631" d="M76 498v209h477v-209h-477z" />
<glyph unicode="&#x2011;" horiz-adv-x="631" d="M76 498v209h477v-209h-477z" />
<glyph unicode="&#x2012;" horiz-adv-x="631" d="M76 498v209h477v-209h-477z" />
<glyph unicode="&#x2013;" horiz-adv-x="881" d="M76 494v213h729v-213h-729z" />
<glyph unicode="&#x2014;" horiz-adv-x="1335" d="M76 494v213h1181v-213h-1181z" />
<glyph unicode="&#x2018;" horiz-adv-x="401" d="M51 1075l139 490h148l-51 -490h-236z" />
<glyph unicode="&#x2019;" horiz-adv-x="401" d="M63 1075l52 490h235l-137 -490h-150z" />
<glyph unicode="&#x201a;" horiz-adv-x="401" d="M53 -215l51 489h238l-139 -489h-150z" />
<glyph unicode="&#x201c;" horiz-adv-x="735" d="M49 1075l141 490h148l-51 -490h-238zM383 1075l139 490h148l-49 -490h-238z" />
<glyph unicode="&#x201d;" horiz-adv-x="735" d="M63 1075l52 490h235l-137 -490h-150zM397 1075l52 490h235l-139 -490h-148z" />
<glyph unicode="&#x201e;" horiz-adv-x="735" d="M63 -215l52 489h235l-137 -489h-150zM397 -215l52 489h235l-139 -489h-148z" />
<glyph unicode="&#x2022;" horiz-adv-x="944" d="M94 543v477q0 145 148 145h460q146 0 146 -145v-477q0 -146 -146 -146h-460q-148 0 -148 146z" />
<glyph unicode="&#x2026;" horiz-adv-x="1133" d="M76 0v242h225v-242h-225zM453 0v242h225v-242h-225zM829 0v242h226v-242h-226z" />
<glyph unicode="&#x202f;" horiz-adv-x="395" />
<glyph unicode="&#x2039;" horiz-adv-x="651" d="M66 537v36l253 381h250v-8l-260 -391l260 -399h-250z" />
<glyph unicode="&#x203a;" horiz-adv-x="651" d="M80 156v8l260 391l-260 399h250l256 -381v-36l-256 -381h-250z" />
<glyph unicode="&#x205f;" horiz-adv-x="494" />
<glyph unicode="&#x20ac;" horiz-adv-x="954" d="M80 570v162h61v134h-61v164h61v391q0 144 140 144h430q143 0 143 -144v-297h-216v245h-270v-339h499v-164h-499v-134h499v-162h-499v-374h270v264h216v-317q0 -143 -143 -143h-430q-140 0 -140 143v427h-61z" />
<glyph unicode="&#x2122;" horiz-adv-x="1229" d="M51 1430v135h455v-135h-154v-768h-145v768h-156zM582 662v903h153l133 -482l136 482h151v-903h-145v485l-99 -397h-88l-98 397v-485h-143z" />
<glyph unicode="&#xe000;" horiz-adv-x="1010" d="M0 0v1010h1010v-1010h-1010z" />
<glyph unicode="&#xfb01;" horiz-adv-x="924" d="M27 815v195h104v430q0 125 127 125h451q127 0 127 -125v-285h-228v211h-250v-356h478v-1010h-228v815h-250v-815h-227v815h-104z" />
<glyph unicode="&#xfb02;" horiz-adv-x="924" d="M27 815v195h104v430q0 125 127 125h578v-1565h-228v1366h-250v-356h146v-195h-146v-815h-227v815h-104z" />
</font>
</defs>
</svg>
